<?xml version="1.0" standalone="no"?>
<!DOCTYPE svg PUBLIC "-//W3C//DTD SVG 20010904//EN"
 "http://www.w3.org/TR/2001/REC-SVG-20010904/DTD/svg10.dtd">
<svg version="1.0" xmlns="http://www.w3.org/2000/svg"
 width="3691.000000pt" height="228.000000pt" viewBox="0 0 3691.000000 228.000000"
 preserveAspectRatio="xMidYMid meet">

<g transform="translate(0.000000,228.000000) scale(0.100000,-0.100000)"
fill="#000000" stroke="none">
<path d="M0 1140 l0 -1140 8999 0 c7190 0 9000 3 9004 13 4 9 7 9 18 -1 10 -9
1914 -12 9451 -12 l9438 0 0 1140 0 1140 -4039 0 c-3201 0 -4040 -3 -4044 -13
-4 -9 -8 -9 -15 2 -11 15 -42 8 -42 -9 0 -7 8 -9 20 -5 22 7 25 -2 10 -25 -9
-13 -11 -13 -20 0 -8 12 -10 11 -10 -7 0 -14 -6 -23 -15 -23 -15 0 -16 -32 -2
-46 11 -11 8 -34 -3 -34 -5 0 -10 7 -10 15 0 8 -11 39 -25 69 -18 40 -30 54
-40 50 -9 -4 -15 0 -15 10 0 19 -16 21 -23 4 -4 -10 -7 -10 -18 0 -16 14 -59
16 -59 2 0 -5 5 -10 10 -10 6 0 10 -6 10 -14 0 -8 6 -16 13 -19 9 -3 9 -7 0
-18 -7 -8 -10 -25 -7 -36 4 -15 1 -22 -13 -25 -13 -3 -24 8 -40 42 -12 25 -22
37 -23 27 0 -13 -7 -18 -22 -17 -40 4 -42 1 -20 -20 24 -23 27 -35 12 -45 -5
-3 -10 3 -10 15 0 12 -5 18 -10 15 -13 -8 -13 -45 1 -45 6 0 9 -16 7 -37 -2
-26 -7 -37 -17 -35 -8 2 -18 -3 -22 -10 -13 -20 -10 -32 5 -19 7 6 21 9 30 5
12 -5 16 0 16 20 0 17 5 26 16 26 11 0 14 -5 10 -16 -11 -28 -90 -124 -103
-124 -7 0 -10 -7 -6 -16 5 -14 1 -15 -28 -9 -19 4 -39 13 -45 21 -14 18 -25
18 -59 0 -24 -12 -29 -12 -46 2 -18 15 -18 18 -3 29 9 6 13 17 9 23 -11 17
-36 -9 -33 -34 2 -13 -3 -21 -12 -21 -21 0 -46 -45 -30 -55 9 -5 8 -9 -3 -13
-7 -3 -20 -1 -28 4 -19 12 -39 11 -39 -1 0 -5 7 -10 15 -10 18 0 18 -5 5 -30
-6 -12 -17 -16 -30 -13 -14 4 -20 0 -20 -10 0 -10 -6 -13 -20 -10 -22 6 -29
-22 -7 -30 7 -3 5 -6 -5 -6 -10 -1 -18 6 -18 16 0 15 -1 15 -18 0 -10 -10 -22
-14 -25 -10 -4 3 -14 -2 -22 -13 -13 -17 -14 -17 -15 -1 0 9 4 17 10 17 5 0 9
16 8 35 -1 19 -4 35 -7 35 -4 0 -15 13 -24 30 -20 33 -22 30 33 34 8 1 16 9
18 19 2 11 9 16 18 13 8 -3 14 1 14 8 0 8 10 16 22 19 23 6 50 -4 49 -19 0 -9
79 -7 88 2 10 10 -16 39 -35 39 -10 0 -25 11 -33 25 -9 15 -16 20 -18 13 -7
-20 -23 -15 -23 7 0 13 5 18 15 14 9 -4 16 3 21 21 3 14 4 29 0 32 -3 4 -6 -1
-6 -9 0 -14 -28 -34 -35 -26 -10 12 -15 68 -6 68 6 0 11 -7 11 -16 0 -13 3
-14 14 -5 7 6 21 8 31 5 13 -5 16 -3 13 7 -3 8 -11 13 -17 11 -6 -1 -11 3 -11
9 0 7 11 8 30 4 22 -5 29 -3 27 7 -2 7 -2 10 0 5 3 -4 13 -7 24 -7 13 0 17 5
12 16 -5 14 -3 15 15 5 19 -10 22 -8 28 14 4 18 13 25 30 25 15 0 24 6 24 16
0 8 -4 12 -10 9 -5 -3 -10 -1 -10 4 0 6 -7 11 -15 11 -17 0 -19 12 -5 26 8 8
-46 12 -178 13 -188 2 -242 -2 -242 -21 0 -5 -6 -16 -14 -23 -11 -11 -17 -11
-40 0 -23 12 -28 12 -33 0 -7 -19 5 -86 19 -102 11 -14 1 -36 -13 -28 -5 4
-15 3 -21 -2 -7 -4 -19 -8 -26 -9 -24 -4 -43 -27 -39 -46 3 -10 1 -18 -4 -18
-5 0 -6 -15 -2 -33 6 -28 4 -30 -9 -20 -8 7 -18 10 -21 6 -13 -13 -7 -23 14
-23 20 0 19 -3 -10 -32 -17 -17 -31 -38 -31 -45 0 -8 -7 -16 -15 -19 -8 -4
-15 -14 -16 -23 0 -13 -2 -12 -8 3 -5 14 -10 16 -15 8 -4 -7 -5 -16 -2 -21 3
-5 -1 -14 -9 -21 -8 -7 -15 -28 -15 -46 0 -19 -4 -34 -10 -34 -5 0 -10 -7 -10
-15 0 -8 7 -15 15 -15 8 0 15 -7 15 -15 0 -8 -5 -15 -11 -15 -6 0 -8 -7 -5
-16 5 -13 2 -15 -14 -11 -14 4 -20 0 -20 -11 -1 -15 -2 -15 -14 1 -13 16 -14
16 -19 -4 -4 -14 -11 -20 -21 -16 -10 4 -16 1 -16 -9 0 -8 5 -12 10 -9 14 9 2
-45 -15 -65 -7 -8 -15 -22 -18 -30 -4 -12 -6 -11 -13 4 -5 13 -3 21 4 24 8 2
8 8 -2 18 -16 16 -30 19 -21 5 3 -5 1 -12 -4 -16 -6 -3 -8 -12 -5 -20 4 -10
-3 -18 -20 -25 -15 -5 -24 -15 -20 -23 2 -7 -4 -22 -16 -32 -11 -10 -20 -14
-20 -10 0 4 -9 0 -20 -10 -20 -18 -21 -18 -27 3 -5 21 -6 21 -19 5 -9 -13 -16
-15 -24 -7 -12 11 -4 44 11 44 5 0 9 5 9 11 0 6 -7 9 -15 5 -9 -3 -15 0 -15 8
0 8 6 16 13 19 10 4 10 7 0 18 -19 19 -16 28 7 22 21 -6 29 20 10 32 -20 13
-10 27 15 21 20 -5 25 -3 25 12 0 10 7 27 15 38 14 18 14 18 15 -8 0 -14 -6
-28 -12 -31 -7 -2 -10 -8 -5 -12 4 -5 13 0 21 10 11 16 17 17 29 7 14 -12 47
-7 47 8 0 4 -7 13 -15 20 -21 17 -19 27 6 33 13 3 18 10 14 17 -5 8 -10 9 -18
1 -7 -7 -16 -7 -29 0 -10 5 -22 8 -27 5 -20 -13 -99 100 -81 118 5 5 5 18 0
32 -7 18 -6 24 4 24 8 0 16 -6 19 -12 2 -7 4 -1 4 14 1 47 43 79 57 42 3 -8
10 -12 16 -9 5 3 10 1 10 -5 0 -7 6 -5 15 4 8 8 15 19 15 25 0 6 5 11 10 11 6
0 10 -4 10 -10 0 -11 33 -14 43 -4 3 3 3 12 0 20 -4 12 -8 12 -21 2 -13 -11
-14 -10 -4 9 16 29 15 34 -5 26 -15 -6 -16 -4 -5 9 9 11 10 18 2 23 -15 9 -12
42 5 49 22 8 19 62 -5 86 -11 11 -21 34 -22 52 -1 17 -13 42 -26 55 l-23 23
-484 0 c-274 0 -485 -4 -485 -9 0 -5 -9 -11 -21 -14 -15 -4 -19 -2 -15 9 5 12
-29 14 -223 14 -209 0 -229 -2 -236 -17 -6 -17 -7 -17 -19 0 -18 23 -26 22
-26 -5 0 -12 -3 -18 -7 -14 -5 4 -8 13 -8 19 0 9 -358 13 -1468 15 -980 1
-1466 -1 -1462 -8 3 -5 1 -10 -4 -10 -6 0 -11 5 -11 10 0 18 -20 11 -21 -7 0
-11 -3 -13 -6 -6 -7 18 -30 16 -37 -2 -8 -22 -28 -19 -22 3 5 16 0 19 -28 20
-30 1 -36 -3 -45 -30 -6 -16 -8 -41 -5 -54 8 -32 -13 -57 -42 -50 -18 5 -21 2
-17 -14 3 -12 0 -20 -6 -20 -7 0 -10 -4 -6 -9 8 -14 -15 -25 -27 -13 -14 14
-48 3 -49 -17 0 -9 -6 -2 -12 16 -7 17 -15 35 -19 39 -4 4 1 14 11 23 10 9 18
27 17 41 -1 14 0 30 3 35 3 6 6 15 6 20 0 6 11 9 24 7 14 -1 21 2 19 10 -3 9
-36 14 -108 16 -106 3 -133 -5 -111 -32 10 -12 9 -14 -5 -12 -9 2 -35 -6 -57
-16 -33 -17 -38 -23 -33 -43 5 -19 3 -23 -9 -19 -10 4 -16 0 -16 -12 -2 -18
-4 -40 -8 -58 0 -5 -12 3 -25 19 -13 15 -21 35 -19 45 3 10 0 21 -6 24 -6 4
-8 20 -4 36 6 33 5 34 -31 20 -25 -9 -26 -8 -20 17 5 18 4 24 -5 19 -6 -4 -11
-18 -11 -31 0 -18 -4 -23 -16 -18 -10 4 -17 -1 -21 -16 -3 -11 -9 -18 -14 -16
-4 3 -6 12 -2 21 3 8 -3 21 -13 29 -18 14 -18 15 4 21 27 8 29 24 2 24 -11 0
-20 -4 -20 -10 0 -5 -5 -10 -11 -10 -5 0 -7 5 -4 10 4 7 -130 10 -394 10 -283
0 -401 -3 -401 -11 0 -16 36 -59 44 -52 3 3 6 -1 6 -9 0 -9 -6 -18 -14 -21
-17 -7 -90 44 -76 53 6 4 8 14 4 23 -6 16 -72 17 -861 17 -470 0 -852 -3 -850
-7 3 -5 -5 -17 -15 -28 -20 -20 -20 -20 -13 4 6 21 5 23 -14 18 -12 -3 -21 0
-21 6 0 7 -6 3 -12 -7 -8 -15 -8 -21 0 -24 7 -2 12 -8 12 -13 0 -12 -40 11
-60 34 -10 12 -25 18 -40 15 -24 -3 -23 -4 10 -20 50 -24 108 -96 95 -118 -12
-20 -41 -9 -54 21 -8 18 -19 28 -27 25 -7 -3 -16 4 -19 15 -4 10 -13 19 -21
19 -8 0 -17 7 -20 15 -7 18 -25 20 -21 2 1 -6 -6 -11 -15 -9 -18 3 -35 -38
-24 -56 12 -19 -34 -20 -57 -1 -19 16 -19 18 -4 19 9 0 17 5 17 10 0 6 9 10
20 10 26 0 26 16 0 32 -11 7 -20 18 -20 25 0 10 -81 13 -379 13 -324 0 -382
-2 -395 -15 -17 -17 -53 -20 -58 -4 -2 5 -24 13 -48 15 -34 4 -41 3 -30 -5 9
-7 10 -11 3 -11 -6 0 -15 5 -18 10 -8 14 -475 14 -475 0 0 -6 5 -19 12 -30 14
-22 2 -41 -13 -20 -8 12 -9 10 -4 -7 6 -23 -8 -38 -25 -28 -8 5 -7 11 0 20 12
15 6 35 -11 35 -5 0 -9 -9 -9 -20 0 -11 -5 -20 -11 -20 -6 0 -9 -7 -6 -15 4
-8 1 -17 -5 -21 -7 -4 -8 7 -3 35 6 34 4 41 -10 41 -12 0 -15 -5 -10 -21 5
-16 3 -20 -6 -16 -8 2 -13 9 -12 15 1 5 -5 16 -13 23 -12 10 -17 10 -23 1 -5
-9 -12 -4 -21 13 -19 35 -55 33 -75 -5 -8 -16 -15 -37 -15 -46 0 -14 -7 -11
-31 14 -17 17 -39 34 -50 37 -10 4 -19 11 -19 16 0 5 -106 9 -262 9 -144 0
-258 -3 -255 -7 10 -9 -25 -32 -50 -33 -12 0 -25 5 -28 10 -4 6 -15 8 -26 5
-14 -5 -17 -3 -13 9 6 15 -773 16 -8365 16 l-8371 0 0 -1140z m18270 1120 c0
-5 -2 -10 -4 -10 -3 0 -8 5 -11 10 -3 6 -1 10 4 10 6 0 11 -4 11 -10z m10610
-10 c0 -5 -2 -10 -4 -10 -3 0 -8 5 -11 10 -3 6 -1 10 4 10 6 0 11 -4 11 -10z
m-11090 -15 c0 -8 -4 -15 -10 -15 -5 0 -10 7 -10 15 0 8 5 15 10 15 6 0 10 -7
10 -15z m620 -2 c0 -7 -4 -13 -9 -13 -5 0 -13 6 -19 13 -8 10 -6 13 9 13 10 0
19 -6 19 -13z m7485 7 c3 -5 2 -10 -4 -10 -5 0 -13 5 -16 10 -3 6 -2 10 4 10
5 0 13 -4 16 -10z m772 -10 c7 -10 10 -26 7 -33 -7 -19 33 -29 57 -14 11 7 19
20 19 31 0 15 3 16 14 7 13 -11 12 -15 -5 -32 -23 -23 -23 -28 -2 -54 15 -19
15 -19 9 8 -4 18 -3 26 3 23 5 -4 13 4 17 16 6 21 7 21 20 3 18 -25 18 -39 -1
-31 -16 6 -19 -2 -7 -21 5 -8 13 -9 22 -3 24 15 30 12 31 -17 0 -16 3 -23 5
-16 3 7 11 10 19 7 9 -4 13 2 11 20 -4 33 4 32 28 -1 11 -14 14 -23 8 -19 -6
4 -12 -3 -14 -16 -2 -13 -9 -22 -16 -21 -14 3 -14 1 -6 -22 5 -13 8 -14 15 -3
6 10 11 9 22 -7 18 -23 11 -46 -12 -43 -11 2 -16 -5 -17 -25 -1 -16 -6 -32
-12 -36 -6 -3 -8 -12 -4 -18 11 -18 2 -109 -9 -92 -7 9 -7 5 -3 -13 5 -21 2
-28 -9 -28 -8 0 -17 -5 -19 -11 -5 -14 -38 0 -38 17 0 8 -6 14 -12 14 -7 0 -5
5 5 11 18 11 24 39 7 39 -5 0 -10 -5 -10 -11 0 -8 -5 -7 -15 1 -10 8 -13 20
-9 34 13 40 12 81 -4 99 -9 11 -11 17 -4 17 7 0 12 5 12 11 0 6 -7 9 -15 6
-19 -8 -30 11 -26 49 3 41 -15 52 -43 25 -18 -17 -25 -19 -33 -9 -18 23 -22
57 -10 89 11 27 9 32 -7 45 -11 8 -14 14 -8 14 7 0 12 7 12 15 0 21 13 19 27
-5z m-3901 -26 c8 3 14 1 14 -4 0 -13 -49 -44 -57 -36 -3 3 -1 6 6 6 9 0 11 8
8 21 -3 11 -3 28 1 37 6 14 7 12 10 -6 2 -16 8 -22 18 -18z m6079 9 c-9 -38
-22 -50 -37 -34 -11 10 -10 14 5 22 9 6 17 17 17 24 0 8 5 15 11 15 7 0 9 -10
4 -27z m-11815 7 c0 -5 -6 -10 -14 -10 -8 0 -18 5 -21 10 -3 6 3 10 14 10 12
0 21 -4 21 -10z m8759 -33 c0 -40 -1 -41 -12 -17 -6 14 -17 29 -24 33 -18 11
-10 22 16 24 18 2 21 -4 20 -40z m3451 32 c0 -7 10 -9 25 -5 18 5 25 2 25 -8
0 -8 -6 -16 -12 -19 -7 -2 -9 -8 -5 -13 5 -5 14 -1 21 9 16 21 30 23 23 3 -4
-11 -1 -13 10 -9 12 5 14 1 8 -15 -3 -12 -2 -22 3 -22 5 0 14 15 19 33 9 29
10 26 9 -29 -1 -42 -5 -60 -13 -57 -6 2 -13 13 -16 24 -3 11 -9 19 -14 18 -27
-6 -113 67 -105 89 5 15 22 16 22 1z m-7127 -19 c-3 -11 -9 -20 -14 -20 -14 0
-11 28 4 33 6 3 13 6 14 6 0 1 -1 -8 -4 -19z m572 11 c3 -6 -4 -15 -15 -21
-16 -8 -20 -8 -20 3 0 25 23 36 35 18z m-4832 -17 c-1 -5 8 -11 19 -11 27 -2
36 -12 20 -22 -7 -4 -10 -15 -7 -24 4 -10 -1 -20 -15 -27 -25 -13 -22 -15 -44
32 -12 24 -23 35 -32 31 -8 -3 -14 1 -14 10 0 9 8 18 18 20 26 8 57 3 55 -9z
m409 -11 c11 -9 18 -11 18 -5 0 7 4 12 8 12 5 0 7 -13 4 -30 -3 -21 -10 -30
-23 -30 -20 0 -24 4 -33 43 -7 31 0 34 26 10z m408 -13 c7 0 10 -7 6 -16 -4
-11 1 -22 14 -31 24 -17 26 -40 3 -65 -12 -13 -13 -18 -3 -18 7 0 21 -8 30
-17 16 -17 15 -20 -3 -53 -10 -19 -21 -37 -23 -39 -8 -8 -33 22 -27 32 4 6 0
8 -10 4 -13 -5 -17 -1 -17 18 0 26 -15 34 -22 13 -3 -7 -10 -8 -17 -4 -11 7
-11 10 0 17 11 8 10 12 -5 24 -24 18 -32 75 -11 75 8 0 17 -11 21 -25 3 -14
10 -22 15 -19 16 9 10 22 -26 59 -41 40 -39 54 5 49 23 -3 30 0 30 14 1 16 1
16 14 0 7 -10 19 -18 26 -18z m7253 15 c4 -8 2 -17 -3 -20 -6 -4 -10 3 -10 14
0 25 6 27 13 6z m-7433 -47 l1 -23 12 21 c9 17 17 20 34 13 22 -8 21 -6 14
-106 -1 -7 -5 -13 -11 -13 -5 0 -10 6 -10 13 0 6 -14 21 -30 32 -20 13 -30 28
-30 45 0 14 -3 36 -7 50 -6 23 -6 24 10 8 9 -9 17 -27 17 -40z m7340 42 c0 -5
-4 -10 -10 -10 -5 0 -10 5 -10 10 0 6 5 10 10 10 6 0 10 -4 10 -10z m2877 -2
c6 -7 10 -28 10 -46 0 -24 -4 -32 -16 -30 -24 5 -27 48 -4 48 17 1 17 1 1 14
-10 7 -18 16 -18 20 0 10 17 7 27 -6z m83 2 c0 -5 -4 -10 -9 -10 -6 0 -13 5
-16 10 -3 6 1 10 9 10 9 0 16 -4 16 -10z m-7242 -10 c6 0 12 -4 12 -10 0 -5
-7 -7 -16 -3 -9 3 -20 0 -25 -8 -8 -12 -11 -12 -19 1 -16 24 -12 33 13 26 12
-3 28 -6 35 -6z m5372 0 c0 -5 -2 -10 -4 -10 -3 0 -8 5 -11 10 -3 6 -1 10 4
10 6 0 11 -4 11 -10z m-9210 -44 c-13 -14 -29 2 -23 24 5 19 6 19 19 3 7 -10
9 -22 4 -27z m3769 -6 l-1 -25 -8 25 c-4 14 -8 32 -9 40 -1 13 0 13 9 0 5 -8
9 -26 9 -40z m-3556 10 c-3 -11 -10 -20 -15 -20 -6 0 -7 7 -4 16 3 9 6 20 6
25 0 6 4 8 9 5 5 -3 7 -15 4 -26z m1192 14 c13 -14 14 -19 3 -25 -9 -6 -10
-11 -2 -16 5 -5 16 -23 23 -41 9 -20 19 -31 27 -28 15 6 29 -28 18 -45 -5 -8
-13 -4 -24 11 l-17 23 -7 -37 c-4 -21 -13 -36 -21 -36 -22 0 -27 18 -9 28 11
6 13 11 5 16 -6 4 -11 16 -11 27 0 14 -6 19 -18 17 -28 -4 -31 15 -4 27 25 11
29 25 7 25 -19 0 -19 19 0 26 11 5 12 11 4 25 -12 24 3 25 26 3z m1730 -4 c-3
-11 -2 -20 3 -20 5 0 12 10 16 23 6 21 6 21 22 -8 11 -21 12 -31 3 -34 -6 -2
-18 -12 -27 -22 -15 -17 -16 -17 -44 2 -15 11 -28 17 -28 13 0 -4 -2 -5 -5 -2
-11 11 8 38 26 38 10 0 19 7 19 15 0 8 5 15 11 15 6 0 8 -9 4 -20z m1835 -18
l0 -26 -21 22 c-21 24 -18 45 6 35 8 -3 15 -17 15 -31z m-1525 -1 c-9 -16 -25
-3 -18 15 4 10 9 12 15 6 6 -6 7 -15 3 -21z m-1998 -3 c-3 -8 -6 -5 -6 6 -1
11 2 17 5 13 3 -3 4 -12 1 -19z m10273 -3 l23 -24 -38 4 c-49 7 -55 13 -31 31
24 17 18 18 46 -11z m-15000 5 c0 -5 -4 -10 -10 -10 -5 0 -10 5 -10 10 0 6 5
10 10 10 6 0 10 -4 10 -10z m14842 -15 c3 -14 1 -25 -3 -25 -5 0 -9 11 -9 25
0 14 2 25 4 25 2 0 6 -11 8 -25z m233 15 c3 -5 1 -10 -4 -10 -6 0 -11 5 -11
10 0 6 2 10 4 10 3 0 8 -4 11 -10z m-3047 -32 c4 2 8 -1 10 -7 7 -20 -14 -11
-39 16 -24 28 -24 28 0 8 13 -11 26 -19 29 -17z m2068 21 c7 -12 -15 -31 -28
-23 -9 6 1 34 12 34 5 0 12 -5 16 -11z m-10786 -8 c0 -6 -4 -13 -10 -16 -5 -3
-10 1 -10 9 0 9 5 16 10 16 6 0 10 -4 10 -9z m8848 -21 c7 0 12 7 12 16 0 28
22 10 37 -31 27 -73 28 -85 4 -85 -23 0 -28 19 -10 37 9 9 7 16 -6 30 -18 17
-18 17 -12 -9 7 -27 -13 -54 -21 -29 -3 9 -7 9 -18 0 -12 -10 -16 -8 -21 9 -3
12 -10 22 -15 22 -6 0 -5 6 2 15 7 8 9 23 4 37 -6 22 -6 22 13 6 11 -10 25
-18 31 -18z m-5428 10 c0 -5 -2 -10 -4 -10 -3 0 -8 5 -11 10 -3 6 -1 10 4 10
6 0 11 -4 11 -10z m-1920 -10 c0 -5 -5 -10 -11 -10 -5 0 -7 5 -4 10 3 6 8 10
11 10 2 0 4 -4 4 -10z m7165 -9 c-2 -5 6 -6 19 -4 17 4 25 -1 29 -16 5 -21 -8
-40 -15 -21 -3 9 -19 16 -50 19 -3 1 -4 10 -1 21 3 11 9 17 14 14 5 -3 7 -9 4
-13z m2335 -13 c0 -5 -4 -8 -10 -8 -5 0 -10 10 -10 23 0 18 2 19 10 7 5 -8 10
-18 10 -22z m743 -1 c-3 -5 -9 -3 -14 4 -4 7 -5 17 -2 22 3 5 9 3 14 -4 4 -7
5 -17 2 -22z m-8604 2 c-16 -10 -23 -4 -14 10 3 6 11 8 17 5 6 -4 5 -9 -3 -15z
m5661 17 c0 -3 -4 -8 -10 -11 -5 -3 -10 -1 -10 4 0 6 5 11 10 11 6 0 10 -2 10
-4z m173 -43 c-5 -14 -8 -14 -19 2 -7 9 -10 24 -7 32 5 14 8 14 19 -2 7 -9 10
-24 7 -32z m-8993 18 c0 -11 -49 -35 -56 -28 -3 3 -3 11 1 17 6 9 10 9 16 -1
6 -10 9 -8 9 8 0 16 4 21 15 17 8 -4 15 -9 15 -13z m7908 1 c6 -18 -15 -14
-22 4 -4 10 -1 14 6 12 6 -2 14 -10 16 -16z m209 -4 c-3 -8 -6 -5 -6 6 -1 11
2 17 5 13 3 -3 4 -12 1 -19z m2166 -2 c13 -10 16 -21 11 -40 -3 -14 -10 -26
-15 -26 -5 0 -7 11 -3 25 5 19 2 25 -11 25 -11 0 -15 -6 -11 -17 3 -10 2 -24
-3 -31 -6 -10 -10 -10 -20 1 -12 15 -5 47 10 47 5 0 9 7 9 15 0 18 9 19 33 1z
m-10243 -6 c0 -5 -9 -14 -20 -20 -23 -12 -26 -6 -7 15 14 17 27 19 27 5z
m7839 -16 c3 -16 1 -17 -13 -5 -19 16 -21 34 -3 29 6 -3 14 -13 16 -24z
m-6359 6 c0 -5 -4 -10 -9 -10 -6 0 -13 5 -16 10 -3 6 1 10 9 10 9 0 16 -4 16
-10z m2800 -51 c0 -10 -5 -21 -10 -24 -6 -4 -8 -11 -4 -16 9 -16 -16 -39 -43
-39 -17 0 -23 4 -20 14 3 8 -2 16 -14 19 -22 6 -24 32 -8 74 l12 28 7 -25 7
-25 13 26 12 27 24 -21 c13 -11 24 -29 24 -38z m450 51 c0 -5 -5 -10 -11 -10
-5 0 -7 5 -4 10 3 6 8 10 11 10 2 0 4 -4 4 -10z m3402 -17 c-3 -16 -7 -22 -10
-15 -4 13 4 42 11 42 2 0 2 -12 -1 -27z m2668 17 c0 -5 -2 -10 -4 -10 -3 0 -8
5 -11 10 -3 6 -1 10 4 10 6 0 11 -4 11 -10z m710 1 c0 -6 -4 -13 -10 -16 -5
-3 -10 1 -10 9 0 9 5 16 10 16 6 0 10 -4 10 -9z m-3315 -10 c3 -5 1 -12 -5
-16 -5 -3 -10 1 -10 9 0 18 6 21 15 7z m65 -7 c0 -8 -5 -12 -10 -9 -6 4 -8 11
-5 16 9 14 15 11 15 -7z m310 -19 c-7 -14 -19 -25 -26 -25 -7 0 -14 -6 -17
-12 -2 -7 -8 -10 -11 -6 -4 3 2 16 13 27 12 12 21 25 21 30 0 10 22 21 29 15
2 -2 -2 -15 -9 -29z m-3821 1 c7 -8 9 -25 5 -40 -7 -29 -24 -35 -24 -8 -1 16
-1 16 -14 0 -14 -20 -41 -24 -51 -8 -3 5 -12 7 -21 3 -12 -5 -13 -1 -3 21 14
30 44 42 64 26 12 -10 15 -9 15 4 0 20 14 21 29 2z m3454 -5 c20 21 22 21 25
5 2 -10 9 -15 18 -12 15 6 12 -19 -7 -71 -13 -36 -37 -26 -30 11 1 5 -1 16 -4
24 -5 13 -8 12 -19 -3 -13 -18 -15 -17 -31 14 -14 28 -14 35 -4 42 10 6 16 1
22 -13 l8 -21 22 24z m434 -23 c-3 -7 -5 -2 -5 12 0 14 2 19 5 13 2 -7 2 -19
0 -25z m33 22 c0 -5 -4 -10 -10 -10 -5 0 -10 5 -10 10 0 6 5 10 10 10 6 0 10
-4 10 -10z m1642 -22 c-15 -15 -26 -4 -18 18 5 13 9 15 18 6 9 -9 9 -15 0 -24z
m-5674 11 c-2 -6 -8 -10 -13 -10 -5 0 -11 4 -13 10 -2 6 4 11 13 11 9 0 15 -5
13 -11z m3972 2 c0 -5 3 -16 6 -24 7 -18 -27 -32 -37 -15 -4 6 -3 20 2 30 10
19 29 25 29 9z m-4460 -21 c0 -5 -2 -10 -4 -10 -3 0 -8 5 -11 10 -3 6 -1 10 4
10 6 0 11 -4 11 -10z m7356 -5 c-8 -8 -18 -15 -22 -15 -3 0 -1 7 6 15 7 8 17
15 22 15 5 0 3 -7 -6 -15z m-19715 -35 c10 0 19 -6 19 -13 0 -23 37 -50 57
-42 29 11 103 12 103 0 0 -5 3 -20 6 -32 5 -17 2 -23 -10 -23 -9 0 -16 -4 -16
-9 0 -17 -42 -19 -82 -5 -66 23 -110 82 -107 142 2 24 2 24 6 5 3 -15 12 -23
24 -23z m18399 20 c0 -5 -2 -10 -4 -10 -3 0 -8 5 -11 10 -3 6 -1 10 4 10 6 0
11 -4 11 -10z m-2333 -16 c10 -27 -11 -35 -24 -8 -9 19 -8 24 3 24 8 0 17 -7
21 -16z m423 -4 c0 -11 -4 -20 -9 -20 -11 0 -22 26 -14 34 12 12 23 5 23 -14z
m-6910 -9 c0 -14 -6 -19 -23 -17 -55 6 -64 36 -12 36 28 0 35 -4 35 -19z
m7160 9 c0 -5 -4 -10 -10 -10 -5 0 -10 5 -10 10 0 6 5 10 10 10 6 0 10 -4 10
-10z m209 -38 c5 -9 13 -14 16 -10 4 4 22 -2 41 -13 19 -10 41 -19 49 -19 8 0
15 -4 15 -10 0 -5 -7 -7 -15 -4 -16 7 -21 -11 -6 -20 5 -4 1 -24 -10 -46 -10
-21 -19 -44 -19 -50 0 -5 -4 -10 -10 -10 -5 0 -10 -7 -10 -15 0 -8 -6 -15 -13
-15 -17 0 -52 38 -44 47 4 3 2 12 -5 20 -9 11 -6 17 10 29 12 8 22 20 22 27 0
8 -3 8 -12 -1 -20 -20 -40 -15 -33 9 5 13 2 25 -6 30 -7 4 -10 12 -5 16 4 4
13 0 20 -10 14 -18 36 -23 36 -7 0 5 -9 14 -20 20 -11 6 -20 17 -20 24 0 8 -7
16 -15 20 -8 3 -15 10 -15 16 0 15 36 -5 49 -28z m1802 17 c9 -17 8 -23 -2
-30 -18 -11 -44 14 -36 35 9 22 24 20 38 -5z m-7233 -29 c-2 -22 -7 -39 -13
-37 -13 5 -47 67 -36 67 5 0 11 -7 15 -15 3 -8 10 -15 17 -15 6 0 9 6 6 14 -5
13 0 26 10 26 2 0 2 -18 1 -40z m4967 5 c14 -14 25 -35 25 -45 0 -41 -45 -10
-55 38 -8 39 -4 40 30 7z m2155 15 c0 -5 -4 -10 -10 -10 -5 0 -10 5 -10 10 0
6 5 10 10 10 6 0 10 -4 10 -10z m582 -34 c12 -6 31 -35 44 -66 12 -30 29 -56
38 -58 19 -4 21 -33 4 -50 -9 -9 -9 -12 0 -12 6 0 16 8 21 18 9 15 10 15 11 0
0 -9 6 -19 13 -21 9 -4 9 -8 -2 -15 -12 -9 -12 -13 3 -27 19 -19 18 -19 35 13
6 12 17 22 23 22 9 0 9 -3 0 -12 -7 -7 -12 -22 -12 -33 0 -29 -10 -37 -28 -23
-11 10 -17 9 -26 -4 -9 -12 -17 -13 -29 -7 -13 8 -17 6 -17 -6 0 -8 -7 -15
-15 -15 -8 0 -15 7 -15 15 0 8 -7 15 -15 15 -21 0 -19 -11 10 -42 27 -29 34
-48 11 -29 -8 7 -25 9 -41 5 -23 -6 -26 -11 -23 -36 3 -16 0 -31 -5 -35 -5 -3
-4 -9 3 -13 8 -5 10 -15 5 -26 -5 -11 -8 -22 -7 -25 1 -4 -7 -14 -17 -24 -18
-16 -19 -15 -26 14 -4 17 -11 34 -17 37 -6 4 -8 -1 -4 -14 9 -26 -4 -33 -40
-22 -16 4 -26 9 -22 9 4 1 1 18 -6 39 -7 20 -11 43 -8 50 2 8 -3 33 -13 58 -9
24 -14 53 -10 64 5 16 2 23 -14 27 -12 3 -21 11 -21 19 0 8 6 11 15 8 9 -4 15
0 15 10 0 9 -7 16 -16 16 -23 0 -55 40 -52 64 5 32 28 31 29 -1 1 -23 3 -21 9
12 4 22 6 43 3 48 -2 4 1 7 6 7 6 0 11 -7 11 -15 0 -8 5 -15 10 -15 10 0 14
15 11 34 -1 5 5 3 14 -4 23 -19 30 -4 11 24 -20 31 -21 42 -2 27 8 -6 18 -11
22 -10 5 1 17 -1 27 -5 30 -14 50 1 42 31 -6 27 -6 27 14 9 12 -11 31 -24 43
-30z m-14718 25 c3 -5 -1 -11 -9 -14 -9 -4 -12 -1 -8 9 6 16 10 17 17 5z
m7191 -21 c-5 -8 -11 -8 -17 -2 -6 6 -7 16 -3 22 5 8 11 8 17 2 6 -6 7 -16 3
-22z m4325 12 c0 -9 9 -23 21 -30 14 -9 18 -19 14 -32 -7 -24 7 -26 25 -5 21
25 28 17 25 -32 -1 -27 -3 -50 -4 -52 -2 -8 -41 38 -41 48 0 5 -14 19 -30 31
-24 17 -29 26 -24 47 6 23 5 25 -17 18 -21 -7 -22 -6 -10 9 18 21 41 21 41 -2z
m2676 -9 c-7 -7 -26 7 -26 19 0 6 6 6 15 -2 9 -7 13 -15 11 -17z m-14138 4 c8
-10 5 -13 -14 -15 -15 -1 -24 3 -24 13 0 18 24 20 38 2z m11578 -14 c-10 -10
-19 5 -10 18 6 11 8 11 12 0 2 -7 1 -15 -2 -18z m566 2 c-4 -26 -22 -45 -22
-25 0 12 18 50 24 50 2 0 1 -11 -2 -25z m-4455 -17 c-3 -8 -6 -5 -6 6 -1 11 2
17 5 13 3 -3 4 -12 1 -19z m4903 2 c8 -16 8 -20 -4 -20 -8 0 -21 -3 -30 -6
-13 -5 -13 -2 -3 20 14 31 23 32 37 6z m1154 -12 c-4 -6 -10 -5 -15 3 -14 22
-10 33 6 19 8 -7 12 -17 9 -22z m322 -3 c-9 -9 -16 -13 -16 -8 0 12 22 34 28
28 2 -2 -3 -11 -12 -20z m-20216 -18 c0 -5 -4 -5 -10 -2 -5 3 -10 14 -10 23 0
15 2 15 10 2 5 -8 10 -19 10 -23z m19939 -48 c-10 -6 -10 -11 -1 -22 9 -11 1
-23 -42 -62 -32 -28 -52 -54 -49 -61 6 -16 -3 -18 -20 -4 -7 6 -25 20 -40 31
-15 12 -26 24 -23 27 3 2 13 -1 21 -8 14 -11 17 -10 22 8 6 24 19 29 25 10 10
-28 27 6 24 46 -3 40 -1 43 18 38 17 -5 19 -3 9 9 -16 19 -4 35 27 37 14 0 27
7 30 14 3 7 6 -2 8 -21 2 -20 -2 -37 -9 -42z m231 56 c0 -8 -4 -15 -10 -15 -5
0 -10 7 -10 15 0 8 5 15 10 15 6 0 10 -7 10 -15z m-9697 -17 c7 -25 0 -41 -14
-33 -12 8 -12 55 0 55 5 0 11 -10 14 -22z m66 0 c12 -15 11 -18 -3 -18 -10 0
-16 8 -16 22 0 12 1 19 3 17 1 -2 9 -12 16 -21z m3271 0 c0 -16 -3 -19 -11
-11 -6 6 -8 16 -5 22 11 17 16 13 16 -11z m-1407 -10 c4 -10 8 -9 17 2 9 13
11 12 8 -5 -4 -25 -41 -27 -46 -2 -4 19 14 24 21 5z m-1883 -52 c0 -4 -11 -6
-25 -4 -14 3 -25 1 -25 -3 0 -5 -4 -9 -10 -9 -19 0 -10 15 18 31 26 15 41 9
42 -15z m2150 20 c0 -15 -18 -31 -26 -23 -7 7 7 37 17 37 5 0 9 -6 9 -14z
m-1327 -9 c30 -2 19 -17 -13 -17 -16 0 -30 -5 -30 -12 0 -6 3 -8 6 -5 10 10
44 -12 44 -27 0 -8 -7 -16 -15 -20 -9 -3 -15 0 -15 9 0 20 -21 30 -31 14 -6
-9 -9 1 -9 30 0 40 1 43 23 36 12 -4 30 -7 40 -8z m3085 -28 c-9 -6 -9 -13 0
-34 7 -14 12 -39 12 -55 0 -24 -4 -28 -23 -26 -37 4 -49 16 -44 44 3 15 -1 32
-9 39 -8 8 -14 21 -14 30 0 11 6 9 20 -8 l19 -24 1 32 c0 36 19 48 37 25 10
-12 10 -18 1 -23z m3405 10 c7 -1 17 -1 22 1 6 1 5 -4 -2 -11 -9 -9 -17 -8
-37 5 -15 9 -26 21 -26 27 0 6 7 3 16 -5 8 -9 21 -17 27 -17z m827 21 c0 -5
-5 -10 -11 -10 -5 0 -7 5 -4 10 3 6 8 10 11 10 2 0 4 -4 4 -10z m267 -22 c-3
-8 -6 -5 -6 6 -1 11 2 17 5 13 3 -3 4 -12 1 -19z m-6507 3 c0 -6 -4 -13 -10
-16 -5 -3 -10 1 -10 9 0 9 5 16 10 16 6 0 10 -4 10 -9z m7377 -23 c-3 -7 -5
-2 -5 12 0 14 2 19 5 13 2 -7 2 -19 0 -25z m43 17 c10 -12 10 -15 -4 -15 -9 0
-16 7 -16 15 0 8 2 15 4 15 2 0 9 -7 16 -15z m-9279 -48 c-13 -13 -23 9 -15
35 l7 23 9 -24 c5 -15 5 -28 -1 -34z m7174 43 c3 -5 -1 -10 -10 -10 -9 0 -13
5 -10 10 3 6 8 10 10 10 2 0 7 -4 10 -10z m-6365 -10 c0 -5 -4 -10 -10 -10 -5
0 -10 5 -10 10 0 6 5 10 10 10 6 0 10 -4 10 -10z m9680 1 c0 -5 -7 -14 -15
-21 -12 -10 -15 -10 -15 2 0 8 3 18 7 21 9 10 23 9 23 -2z m-10520 -11 c0 -5
-4 -10 -9 -10 -6 0 -13 5 -16 10 -3 6 1 10 9 10 9 0 16 -4 16 -10z m7367 -11
c2 -16 -1 -19 -9 -11 -5 5 -7 15 -4 21 10 15 12 14 13 -10z m-11578 -11 c8
-20 10 -21 16 -5 10 23 33 21 59 -5 12 -13 31 -28 42 -34 14 -9 16 -15 7 -24
-7 -7 -17 -9 -25 -4 -7 5 -20 7 -30 6 -9 -2 -19 2 -22 7 -4 6 -13 8 -20 5 -8
-3 -17 -1 -21 5 -3 6 -15 11 -26 11 -13 0 -19 7 -19 23 0 42 25 51 39 15z
m4281 -34 c0 -16 -16 -19 -25 -4 -8 13 4 32 16 25 5 -4 9 -13 9 -21z m1825 6
c-4 -11 -2 -20 4 -20 6 0 11 -7 11 -16 0 -14 -3 -14 -15 -4 -17 14 -20 60 -4
60 6 0 8 -9 4 -20z m7945 -2 c0 -10 8 -22 18 -25 9 -4 21 -12 25 -20 4 -7 17
-13 29 -13 16 0 19 -4 14 -24 -6 -24 9 -45 22 -31 3 3 1 10 -7 14 -9 6 -7 10
8 14 12 3 24 1 27 -4 3 -5 0 -9 -5 -9 -6 0 -3 -15 6 -36 17 -34 17 -37 -1 -49
-12 -10 -16 -20 -11 -36 5 -15 9 -18 15 -9 6 10 9 10 15 0 5 -8 1 -18 -10 -26
-13 -10 -16 -21 -12 -43 4 -19 2 -31 -6 -34 -9 -3 -9 -7 0 -17 15 -16 6 -40
-16 -40 -14 0 -17 8 -15 40 1 22 7 46 13 53 8 11 5 16 -14 25 -20 9 -23 9 -18
-3 6 -18 -8 -20 -26 -2 -10 10 -15 8 -26 -7 -8 -10 -18 -15 -24 -11 -7 3 -11
-2 -11 -14 0 -11 -8 -25 -17 -30 -16 -9 -16 -12 -3 -21 13 -9 12 -12 -4 -25
-11 -8 -17 -18 -13 -22 4 -3 15 1 25 11 11 9 26 14 36 10 9 -3 16 -1 16 5 0
18 18 13 23 -6 3 -12 5 -10 6 7 1 20 3 22 11 10 15 -24 12 -53 -5 -46 -27 10
-16 -10 13 -24 22 -11 24 -14 10 -17 -10 -3 -18 -9 -18 -14 0 -6 -5 -7 -10 -4
-6 3 -13 -1 -16 -10 -4 -10 -13 -13 -26 -9 -10 3 -25 1 -33 -6 -9 -7 -15 -8
-20 0 -8 13 -25 13 -25 -1 0 -15 -26 -39 -34 -32 -3 4 -6 1 -6 -6 0 -7 -4 -9
-10 -6 -14 9 -12 35 2 33 7 -2 14 7 16 19 4 27 55 48 71 29 14 -17 71 -8 71
11 0 12 -8 14 -34 9 -18 -4 -45 -2 -60 4 -20 7 -26 6 -26 -4 0 -15 -49 -40
-59 -30 -3 4 0 9 7 11 14 5 -58 83 -77 83 -6 0 -11 9 -11 20 0 11 -7 20 -15
20 -18 0 -19 12 -3 28 9 9 7 12 -10 12 -12 0 -27 9 -34 20 -7 11 -19 20 -26
20 -9 0 -10 5 -3 18 10 19 -13 62 -26 48 -4 -4 -2 -10 5 -15 8 -5 9 -16 2 -41
-8 -27 -7 -36 4 -42 8 -4 12 -17 9 -27 -4 -15 1 -20 23 -23 36 -4 42 -26 10
-34 -14 -3 -24 -10 -21 -14 3 -5 14 -6 25 -3 21 6 23 1 14 -34 -5 -20 -8 -20
-21 -8 -17 18 -33 19 -33 4 0 -5 5 -7 10 -4 6 3 10 -3 10 -14 0 -11 -7 -21
-15 -23 -10 -2 -12 -7 -5 -18 9 -13 13 -12 28 6 10 11 23 19 30 16 10 -3 7
-11 -9 -28 -18 -19 -20 -26 -9 -39 10 -12 10 -15 -3 -15 -9 0 -20 8 -25 17 -9
15 -12 13 -28 -13 -11 -17 -25 -29 -32 -27 -8 3 -10 -1 -5 -14 3 -10 3 -15 -2
-11 -4 4 -15 2 -23 -5 -13 -10 -14 -9 -9 8 9 27 -4 47 -23 35 -12 -8 -11 -10
4 -10 19 0 19 0 1 -14 -11 -8 -25 -12 -31 -9 -7 2 -17 -5 -23 -16 -15 -27 -14
-31 5 -24 22 8 14 -17 -9 -31 -12 -8 -22 -7 -37 2 -12 7 -20 8 -20 2 0 -5 -4
-10 -10 -10 -5 0 -10 7 -10 15 0 9 -11 20 -25 25 -16 6 -25 17 -25 32 0 21 -1
22 -17 5 -17 -17 -17 -19 -1 -31 15 -11 15 -13 -2 -24 -15 -9 -19 -8 -23 6 -3
13 -7 10 -16 -12 -11 -27 -13 -28 -30 -12 -9 9 -22 16 -27 16 -5 0 -3 -4 4 -9
13 -8 10 -21 -16 -61 -2 -2 -8 2 -13 10 -8 11 -12 12 -16 3 -6 -17 -28 -16
-43 2 -7 8 -16 13 -20 10 -5 -3 -11 4 -15 15 -3 11 -13 21 -21 21 -8 1 -19 2
-26 3 -6 0 -13 7 -16 15 -3 8 0 11 7 7 6 -4 11 -3 11 3 0 17 -49 25 -65 11
-13 -11 -15 -8 -16 16 -1 16 -1 32 0 36 0 4 -3 18 -8 30 -6 16 -4 27 4 35 15
14 25 7 25 -19 0 -11 5 -18 13 -15 7 2 11 16 9 31 -3 19 0 26 7 22 6 -4 11
-14 11 -22 0 -8 5 -14 10 -14 6 0 10 11 10 25 0 14 5 25 10 25 6 0 10 -10 10
-21 0 -19 2 -20 16 -8 11 9 14 23 11 47 -5 30 -4 32 15 26 16 -5 20 -3 16 8
-3 8 0 22 7 32 11 14 17 15 34 7 30 -17 46 -14 31 4 -7 9 -11 18 -8 20 8 8 58
-20 58 -32 0 -16 12 -17 26 -3 8 8 15 6 23 -4 16 -20 5 -41 -14 -26 -9 8 -14
6 -19 -5 -5 -13 5 -20 27 -16 4 0 7 -3 7 -9 0 -5 9 -19 20 -30 11 -11 20 -27
20 -35 0 -8 4 -15 8 -15 10 0 9 -30 -2 -48 -4 -6 -3 -19 2 -29 9 -14 11 -14
21 6 7 12 9 31 6 41 -4 12 -2 20 4 20 6 0 11 -7 11 -15 0 -8 5 -15 11 -15 6 0
17 7 25 15 16 16 39 21 30 7 -8 -13 11 -35 23 -28 6 4 9 12 5 17 -3 5 0 16 6
25 10 12 7 16 -19 25 -23 8 -30 16 -26 27 3 8 1 19 -6 22 -6 4 -12 23 -14 41
-2 28 -7 35 -35 42 -19 5 -42 6 -52 4 -22 -6 -33 9 -15 20 18 10 32 53 18 53
-6 0 -11 -4 -11 -10 0 -5 -4 -10 -10 -10 -5 0 -10 5 -10 12 0 6 -7 20 -17 30
-9 10 -13 21 -9 26 4 4 13 -1 20 -11 16 -21 26 -22 26 -1 0 10 6 13 18 10 16
-5 18 -2 14 22 -3 24 -1 28 22 27 26 -2 51 -15 27 -15 -7 0 -9 -5 -6 -11 5 -6
12 -4 21 8 11 14 16 15 22 5 5 -7 16 -10 26 -6 11 4 22 0 30 -12 12 -16 16
-17 32 -4 16 14 17 13 11 -11 -7 -27 2 -40 33 -51 12 -4 15 2 15 26 -1 17 -7
41 -14 54 -10 18 -10 26 0 38 12 15 6 29 -13 29 -6 0 -13 6 -15 13 -4 10 15
17 40 13 4 0 7 2 7 7 0 4 20 6 45 4 42 -4 45 -2 45 19 0 18 2 21 9 10 8 -12
12 -12 24 -2 12 9 16 9 20 -1 3 -7 6 0 6 16 1 28 2 28 19 13 23 -21 34 -12 26
19 -7 29 5 30 39 4 32 -25 41 -25 34 -1 -3 11 1 28 8 38 17 25 55 25 55 1z
m-8967 -3 c-3 -9 -8 -14 -10 -11 -3 3 -2 9 2 15 9 16 15 13 8 -4z m7131 0 c-4
-8 -1 -15 5 -15 6 0 11 -7 11 -15 0 -8 -4 -15 -10 -15 -5 0 -12 -16 -16 -35
-3 -19 -10 -38 -15 -41 -15 -9 -10 -24 7 -24 12 0 15 -7 12 -25 -3 -14 -1 -22
5 -18 5 3 6 -3 2 -16 -4 -14 -2 -21 7 -21 7 0 14 -11 14 -25 1 -14 -2 -25 -7
-25 -15 0 -10 -28 6 -38 19 -10 9 -46 -10 -38 -7 2 -18 -1 -25 -7 -10 -10 -11
-6 -8 16 3 15 1 30 -3 33 -5 3 -9 -4 -9 -14 0 -11 -6 -25 -14 -31 -8 -7 -12
-21 -8 -33 3 -13 1 -19 -5 -15 -6 4 -14 0 -17 -9 -5 -14 -7 -14 -22 0 -17 18
-34 21 -34 7 0 -5 7 -14 15 -21 8 -7 12 -16 9 -21 -8 -14 -24 -11 -24 5 0 8
-10 18 -22 22 -32 10 -49 35 -35 52 8 10 7 16 -2 22 -8 4 -11 12 -7 18 3 6 2
13 -3 17 -13 8 -2 35 14 35 7 0 18 14 25 31 7 17 25 35 38 40 l26 10 -28 14
c-16 8 -31 13 -36 10 -4 -2 -5 7 -2 20 2 14 10 25 17 25 7 0 18 7 25 15 9 10
9 15 1 15 -17 0 -13 14 9 28 17 10 21 10 27 -4 3 -9 0 -20 -8 -24 -7 -5 -10
-12 -6 -17 5 -4 12 -2 16 5 4 7 15 10 23 7 11 -5 16 -1 15 12 -1 12 4 17 16
16 15 -1 18 4 14 25 -3 15 -1 35 4 44 12 22 21 24 13 3z m41 6 c3 -5 1 -12 -5
-16 -5 -3 -10 1 -10 9 0 18 6 21 15 7z m207 -15 c-4 -22 37 -68 55 -62 18 7
26 -11 14 -33 -8 -14 -7 -22 4 -31 8 -7 15 -21 15 -32 0 -18 -2 -19 -17 -7
-17 13 -17 13 0 -13 9 -15 14 -34 11 -43 -4 -8 -1 -21 5 -29 8 -10 8 -16 -1
-23 -23 -17 -52 -9 -58 15 -6 28 -26 29 -23 1 2 -10 -2 -19 -7 -19 -6 0 -10 9
-10 20 0 25 -39 48 -51 29 -10 -17 -1 -32 17 -25 9 3 21 -9 33 -34 l19 -40
-23 0 c-13 0 -30 -6 -37 -13 -8 -8 -21 -11 -32 -7 -18 6 -18 7 -3 13 25 10 21
34 -12 63 -19 17 -27 32 -24 45 3 10 0 26 -8 35 -11 13 -8 15 27 12 35 -3 39
-1 36 19 -2 12 2 24 7 27 6 4 8 13 4 21 -3 10 1 15 12 15 12 0 16 6 12 20 -3
11 -1 23 5 26 6 4 8 22 5 41 -5 29 -3 34 11 31 10 -2 16 -11 14 -22z m1628 14
c0 -5 -4 -10 -10 -10 -5 0 -10 5 -10 10 0 6 5 10 10 10 6 0 10 -4 10 -10z
m-9040 -4 c0 -3 -4 -8 -10 -11 -5 -3 -10 -1 -10 4 0 6 5 11 10 11 6 0 10 -2
10 -4z m-4802 -50 c3 -11 -3 -15 -19 -14 -15 2 -24 -3 -27 -14 -2 -11 3 -17
15 -17 54 -1 68 -8 71 -34 3 -25 1 -27 -33 -27 -29 0 -36 3 -31 15 3 9 0 15
-9 15 -8 0 -15 -9 -15 -20 0 -12 -7 -20 -17 -20 -15 0 -18 8 -17 42 2 69 18
97 51 94 16 -2 29 -10 31 -20z m7436 1 c0 -9 -1 -37 -2 -61 -2 -39 -4 -43 -26
-41 -45 5 -68 24 -62 51 4 15 2 24 -5 24 -8 0 -8 4 1 15 16 19 31 19 24 0 -4
-11 -2 -13 9 -9 8 3 17 14 20 26 7 24 42 21 41 -5z m4486 8 c-7 -8 -16 -15
-21 -15 -5 0 -6 7 -3 15 4 8 13 15 21 15 13 0 13 -3 3 -15z m-116 -27 c4 -17
2 -28 -4 -28 -5 0 -10 14 -10 32 0 36 4 35 14 -4z m-12477 -56 c-15 -15 -17
-15 -17 0 0 8 3 31 7 49 l7 34 10 -33 c7 -27 6 -36 -7 -50z m133 68 c0 -5 -4
-10 -9 -10 -4 0 -12 -15 -17 -32 -9 -29 -14 -33 -42 -31 -35 2 -43 -11 -14
-22 16 -6 16 -7 -1 -16 -9 -6 -21 -8 -26 -5 -11 7 -11 56 0 56 5 0 9 9 9 20 0
25 27 27 33 3 3 -16 5 -16 12 2 14 32 55 59 55 35z m8020 -25 c0 -8 -4 -17
-10 -20 -6 -4 -10 5 -10 20 0 15 4 24 10 20 6 -3 10 -12 10 -20z m5414 0 c-4
-8 -10 -13 -15 -10 -4 3 -6 12 -3 20 4 8 10 13 15 10 4 -3 6 -12 3 -20z
m-1104 -45 c0 -5 -4 -10 -10 -10 -5 0 -10 5 -10 10 0 6 5 10 10 10 6 0 10 -4
10 -10z m-12511 -31 c-11 -11 -24 -17 -29 -14 -6 3 -7 -1 -4 -9 3 -9 1 -16 -5
-16 -6 0 -11 7 -11 17 0 14 -2 14 -20 -2 -11 -10 -20 -13 -20 -7 0 6 13 20 28
31 21 15 32 17 40 9 8 -8 13 -7 18 5 3 9 10 14 15 12 4 -3 -1 -15 -12 -26z
m7881 16 c0 -9 -6 -12 -15 -9 -8 4 -15 10 -15 15 0 5 7 9 15 9 8 0 15 -7 15
-15z m35 5 c3 -5 1 -10 -4 -10 -6 0 -11 5 -11 10 0 6 2 10 4 10 3 0 8 -4 11
-10z m3908 3 c-17 -6 -16 -32 0 -39 8 -3 14 -20 15 -39 1 -28 -2 -35 -18 -35
-12 0 -17 5 -14 14 3 7 -2 16 -10 19 -14 6 -16 21 -7 80 0 4 11 7 24 6 12 0
16 -3 10 -6z m-11780 -36 c-7 -12 -5 -78 4 -87 2 -3 9 3 14 13 12 21 29 22 29
2 0 -8 9 -15 20 -15 11 0 20 5 20 10 0 6 -8 10 -17 10 -15 0 -16 2 -3 10 20
13 49 -25 50 -62 0 -16 4 -28 10 -28 5 0 7 13 3 31 -5 24 -3 31 8 27 16 -5 21
-79 5 -77 -27 3 -36 -2 -36 -21 0 -11 5 -20 10 -20 6 0 10 5 10 10 0 21 16 9
27 -20 10 -27 9 -30 -5 -28 -9 2 -19 5 -22 8 -3 3 -14 10 -25 16 -11 6 -22 22
-23 35 -2 13 -10 32 -17 42 -13 18 -14 18 -32 0 -10 -10 -31 -19 -46 -21 -23
-1 -27 2 -27 23 0 13 -4 27 -10 30 -5 3 -10 1 -10 -4 0 -6 -4 -11 -10 -11 -5
0 -10 7 -10 15 0 20 -17 19 -28 -1 -8 -15 -10 -15 -15 0 -4 10 -1 16 8 16 25
0 17 26 -12 37 -27 11 -27 11 11 9 29 -2 42 -9 52 -27 14 -24 17 -20 15 17 -1
11 7 28 19 39 11 10 20 24 20 32 0 8 5 11 10 8 6 -4 7 -12 3 -18z m14987 13
c0 -5 -4 -10 -10 -10 -5 0 -10 5 -10 10 0 6 5 10 10 10 6 0 10 -4 10 -10z
m-3375 -10 c3 -5 1 -10 -4 -10 -6 0 -11 5 -11 10 0 6 2 10 4 10 3 0 8 -4 11
-10z m115 -25 c0 -19 -4 -35 -10 -35 -11 0 -14 53 -3 63 11 12 13 8 13 -28z
m-66 4 c-3 -5 -10 -7 -15 -3 -5 3 -7 10 -3 15 3 5 10 7 15 3 5 -3 7 -10 3 -15z
m1777 -16 c-12 -20 -14 -14 -5 12 4 9 9 14 11 11 3 -2 0 -13 -6 -23z m-6781 7
c0 -5 -4 -10 -10 -10 -5 0 -10 -7 -10 -15 0 -9 -6 -12 -15 -8 -14 5 -14 8 2
24 20 20 33 24 33 9z m5381 -30 c6 0 7 -4 4 -10 -3 -5 -1 -10 4 -10 6 0 11 8
12 18 0 13 2 14 6 2 4 -8 12 -20 19 -28 11 -10 15 -9 24 9 8 14 15 18 22 11 6
-6 1 -25 -15 -56 -23 -43 -25 -45 -31 -23 -3 15 -18 30 -36 37 -18 8 -29 18
-26 26 3 7 0 14 -6 16 -7 3 -8 13 -2 28 8 25 8 25 12 3 2 -13 8 -23 13 -23z
m-11751 4 c0 -8 -4 -14 -10 -14 -5 0 -10 9 -10 21 0 11 5 17 10 14 6 -3 10
-13 10 -21z m11247 11 c8 -22 -6 -33 -17 -15 -13 20 -12 30 0 30 6 0 13 -7 17
-15z m290 -7 c-3 -8 -6 -5 -6 6 -1 11 2 17 5 13 3 -3 4 -12 1 -19z m-3234 -18
c-6 -24 -19 -34 -28 -21 -7 12 16 52 26 45 4 -2 5 -13 2 -24z m-8243 10 c0 -5
-2 -10 -4 -10 -3 0 -8 5 -11 10 -3 6 -1 10 4 10 6 0 11 -4 11 -10z m3300 6 c0
-3 -4 -8 -10 -11 -5 -3 -10 -1 -10 4 0 6 5 11 10 11 6 0 10 -2 10 -4z m-3810
-21 c0 -8 -4 -15 -10 -15 -5 0 -7 7 -4 15 4 8 8 15 10 15 2 0 4 -7 4 -15z
m12605 5 c-3 -5 -10 -10 -16 -10 -5 0 -9 5 -9 10 0 6 7 10 16 10 8 0 12 -4 9
-10z m-5783 -22 c-6 -6 -15 -8 -19 -4 -4 4 -1 11 7 16 19 12 27 3 12 -12z
m4922 0 c8 -12 13 -25 11 -28 -5 -9 33 -23 53 -21 6 1 12 -3 12 -9 0 -5 -5
-10 -11 -10 -5 0 -7 -5 -4 -10 4 -6 11 -8 16 -5 5 4 18 3 30 0 15 -5 17 -10 9
-20 -6 -7 -8 -24 -5 -37 4 -16 1 -29 -9 -37 -13 -11 -16 -11 -16 3 0 9 -7 16
-15 16 -9 0 -19 8 -22 18 -4 9 -16 27 -27 39 -35 36 -46 52 -46 66 0 7 -5 18
-11 24 -12 12 -4 33 11 33 5 0 16 -10 24 -22z m1769 -19 c4 -16 3 -18 -9 -8
-15 13 -16 10 -15 -41 1 -32 0 -33 -9 -12 -6 13 -19 26 -29 29 -17 4 -18 8 -8
26 28 49 58 52 70 6z m-8404 -1 c10 16 28 1 35 -28 4 -15 0 -33 -9 -44 -13
-17 -16 -18 -38 -3 -31 20 -41 66 -19 88 16 15 17 14 20 -4 2 -12 7 -16 11 -9z
m8451 2 c0 -6 -9 -5 -20 2 -11 7 -20 16 -20 21 0 4 9 3 20 -3 11 -6 20 -15 20
-20z m-4845 11 c3 -5 1 -12 -5 -16 -5 -3 -10 -2 -10 4 0 5 -8 12 -17 14 -14 4
-13 5 4 6 12 0 24 -3 28 -8z m3611 -61 c-1 -14 5 -25 12 -25 13 0 15 -7 6 -29
-3 -8 0 -25 6 -38 l11 -23 -21 24 c-11 13 -18 31 -16 38 3 8 2 11 -4 8 -12 -8
-60 5 -60 16 0 5 7 6 16 2 14 -5 16 -1 12 20 -3 15 -1 27 3 27 5 0 9 7 9 16 0
13 2 13 14 2 7 -8 13 -25 12 -38z m1654 40 c0 -5 -2 -10 -4 -10 -3 0 -8 5 -11
10 -3 6 -1 10 4 10 6 0 11 -4 11 -10z m-5300 -31 c0 -14 -17 -10 -23 5 -4 10
-1 13 9 9 7 -3 14 -9 14 -14z m3200 6 c0 -8 -4 -15 -10 -15 -5 0 -10 7 -10 15
0 8 5 15 10 15 6 0 10 -7 10 -15z m3125 5 c3 -5 1 -10 -4 -10 -6 0 -11 5 -11
10 0 6 2 10 4 10 3 0 8 -4 11 -10z m-2058 -22 c-3 -8 -6 -5 -6 6 -1 11 2 17 5
13 3 -3 4 -12 1 -19z m168 1 c11 -17 -1 -21 -15 -4 -8 9 -8 15 -2 15 6 0 14
-5 17 -11z m1555 -14 c0 -7 -9 -15 -20 -18 -21 -5 -24 1 -14 27 7 17 34 10 34
-9z m-650 8 c0 -12 -34 -30 -50 -26 -33 9 -23 28 15 28 19 0 35 -1 35 -2z
m-13820 -13 c0 -5 -5 -10 -11 -10 -5 0 -7 5 -4 10 3 6 8 10 11 10 2 0 4 -4 4
-10z m30 -10 c0 -5 -2 -10 -4 -10 -3 0 -8 5 -11 10 -3 6 -1 10 4 10 6 0 11 -4
11 -10z m6600 -6 c0 -8 4 -13 8 -10 4 2 14 0 22 -5 11 -8 12 -12 3 -16 -9 -3
-10 -10 -3 -23 11 -20 8 -23 -37 -47 -13 -6 -25 -8 -28 -3 -3 4 0 10 7 12 9 3
8 12 -5 31 -17 26 -17 28 0 52 21 28 33 32 33 9z m5760 6 c0 -5 -4 -10 -10
-10 -5 0 -10 5 -10 10 0 6 5 10 10 10 6 0 10 -4 10 -10z m857 -12 c-3 -8 -6
-5 -6 6 -1 11 2 17 5 13 3 -3 4 -12 1 -19z m-9257 2 c0 -5 -2 -10 -4 -10 -3 0
-8 5 -11 10 -3 6 -1 10 4 10 6 0 11 -4 11 -10z m10225 1 c3 -5 1 -12 -5 -16
-5 -3 -10 1 -10 9 0 18 6 21 15 7z m-2353 -56 c5 -25 -7 -55 -22 -55 -6 0 -10
9 -10 20 0 11 5 20 12 20 6 0 4 7 -5 18 -10 10 -17 27 -17 37 0 17 1 17 19 1
10 -9 21 -28 23 -41z m38 25 c0 -11 -4 -20 -10 -20 -5 0 -10 2 -10 4 0 2 -3
11 -6 20 -4 11 -1 16 10 16 9 0 16 -8 16 -20z m698 -31 c-7 -20 -27 9 -21 31
l6 24 9 -24 c5 -13 7 -27 6 -31z m216 34 c3 -10 9 -24 12 -32 4 -8 3 -12 -2
-9 -5 3 -17 -3 -26 -14 -22 -22 -10 -24 20 -2 14 10 30 13 40 8 9 -4 21 -6 25
-5 5 1 6 -3 2 -9 -3 -5 -12 -10 -19 -10 -8 0 -16 -10 -19 -22 -8 -28 2 -38 14
-15 6 9 18 17 29 17 10 0 21 8 23 18 3 9 5 3 6 -15 0 -17 -3 -35 -9 -38 -5 -3
-10 -11 -10 -17 0 -6 8 -3 19 8 10 10 16 24 14 30 -2 7 0 15 6 19 7 3 11 -2
11 -14 0 -11 5 -23 10 -26 16 -10 12 -23 -7 -27 -15 -3 -14 -8 11 -31 21 -20
25 -27 12 -27 -9 0 -16 -6 -17 -12 0 -10 -2 -10 -6 0 -9 23 -23 12 -17 -13 4
-15 2 -25 -5 -25 -6 0 -11 -7 -11 -15 0 -8 -5 -15 -11 -15 -6 0 -8 9 -4 20 5
14 2 20 -9 20 -9 0 -16 -8 -16 -20 0 -13 -5 -18 -15 -14 -8 4 -15 1 -15 -5 0
-6 9 -11 20 -11 22 0 25 -7 11 -29 -6 -9 -11 -10 -15 -2 -10 16 -20 14 -33 -9
-17 -27 -7 -49 20 -43 22 5 22 5 2 -10 -18 -15 -21 -14 -29 4 -5 11 -19 19
-34 19 -21 0 -23 -3 -18 -25 4 -14 4 -25 0 -25 -13 0 -34 30 -34 49 0 15 -5
19 -16 14 -10 -4 -14 -14 -11 -30 2 -13 0 -26 -4 -29 -5 -3 -9 2 -9 11 0 9 -6
15 -12 12 -7 -2 -12 -12 -11 -23 1 -10 -5 -27 -12 -38 -13 -18 -14 -16 -8 19
4 27 3 36 -5 31 -7 -4 -12 -13 -12 -21 0 -14 -57 -38 -71 -29 -16 9 -10 34 9
35 16 1 16 2 0 6 -23 6 -24 35 -2 31 10 -2 19 3 21 10 3 8 -3 11 -18 10 -28
-4 -57 45 -40 66 6 7 8 16 4 20 -9 9 16 26 40 26 9 0 17 -5 17 -11 0 -5 -4 -7
-10 -4 -5 3 -10 1 -10 -4 0 -14 17 -14 25 -1 11 18 -6 70 -23 70 -13 0 -12 3
4 14 10 8 21 10 22 5 2 -5 8 -9 12 -9 13 0 8 43 -7 58 -7 7 -13 27 -13 43 0
25 5 30 30 36 17 3 30 10 30 15 0 5 15 8 33 6 28 -2 32 0 30 20 -2 14 3 22 12
22 8 0 15 -7 15 -15 0 -9 6 -12 15 -9 8 4 15 12 15 20 0 20 27 17 34 -3z
m-1054 -3 c0 -5 -7 -10 -16 -10 -8 0 -12 5 -9 10 3 6 10 10 16 10 5 0 9 -4 9
-10z m-57 -58 c-3 -12 -12 -22 -19 -22 -19 0 -18 10 4 30 21 21 23 20 15 -8z
m77 -3 c0 -11 -4 -17 -10 -14 -5 3 -10 15 -10 26 0 11 5 17 10 14 6 -3 10 -15
10 -26z m173 -21 c21 -13 0 -19 -26 -7 -23 10 -24 12 -8 28 14 14 16 15 20 1
2 -8 8 -18 14 -22z m476 21 c-16 -10 -23 -4 -14 10 3 6 11 8 17 5 6 -4 5 -9
-3 -15z m-229 -4 c0 -8 -4 -15 -10 -15 -5 0 -10 7 -10 15 0 8 5 15 10 15 6 0
10 -7 10 -15z m314 -11 c3 -8 2 -12 -4 -9 -6 3 -10 10 -10 16 0 14 7 11 14 -7z
m2326 0 c0 -8 -5 -12 -10 -9 -6 4 -8 11 -5 16 9 14 15 11 15 -7z m-2376 -10
c4 -10 1 -14 -6 -12 -15 5 -23 28 -10 28 5 0 13 -7 16 -16z m2683 10 c-3 -3
-12 -4 -19 -1 -8 3 -5 6 6 6 11 1 17 -2 13 -5z m-3252 -24 c3 -5 1 -10 -4 -10
-6 0 -11 5 -11 10 0 6 2 10 4 10 3 0 8 -4 11 -10z m525 0 c0 -5 -5 -10 -11
-10 -5 0 -7 5 -4 10 3 6 8 10 11 10 2 0 4 -4 4 -10z m2680 -5 c-7 -8 -17 -12
-22 -9 -6 4 -5 10 3 15 22 14 33 10 19 -6z m-7535 -5 c3 -5 1 -10 -4 -10 -6 0
-11 5 -11 10 0 6 2 10 4 10 3 0 8 -4 11 -10z m4171 -10 c16 0 19 -16 5 -25
-10 -5 -32 25 -30 42 0 4 3 2 6 -4 2 -7 11 -13 19 -13z m3144 -5 c0 -25 14
-33 25 -15 9 15 35 12 35 -4 0 -9 8 -12 23 -9 l22 5 -22 -19 c-16 -14 -19 -23
-12 -40 5 -16 13 -21 25 -16 14 5 14 3 2 -18 -7 -13 -14 -26 -15 -28 -1 -2
-20 -6 -42 -8 -33 -4 -40 -1 -46 16 -3 12 -15 21 -25 21 -10 0 -20 5 -22 11
-3 9 -10 9 -26 0 -16 -8 -28 -9 -42 -1 -20 11 -27 21 -12 19 18 -3 22 2 10 15
-7 7 -20 11 -28 8 -12 -4 -13 -2 -3 8 10 11 18 11 38 2 33 -15 47 -15 43 1 -3
13 50 77 64 77 4 0 8 -11 8 -25z m-60 5 c0 -5 -4 -10 -10 -10 -5 0 -10 5 -10
10 0 6 5 10 10 10 6 0 10 -4 10 -10z m-2240 -4 c0 -3 -4 -8 -10 -11 -5 -3 -10
-1 -10 4 0 6 5 11 10 11 6 0 10 -2 10 -4z m-761 -73 c0 -11 -3 -13 -6 -5 -2 6
-11 12 -19 12 -8 0 -14 10 -14 25 l0 25 20 -20 c11 -11 20 -28 19 -37z m2316
47 c3 -5 1 -10 -4 -10 -6 0 -11 5 -11 10 0 6 2 10 4 10 3 0 8 -4 11 -10z m868
-53 c-3 -5 -10 -4 -15 1 -6 6 -7 16 -3 22 6 9 9 9 16 -1 4 -7 5 -17 2 -22z
m-1533 -6 c0 -5 -7 -14 -15 -21 -12 -10 -15 -10 -15 2 0 8 3 18 7 21 9 10 23
9 23 -2z m-895 -11 c3 -5 2 -10 -4 -10 -5 0 -13 5 -16 10 -3 6 -2 10 4 10 5 0
13 -4 16 -10z m-39 -27 c-10 -10 -19 5 -10 18 6 11 8 11 12 0 2 -7 1 -15 -2
-18z m903 -51 c1 -7 -3 -10 -9 -7 -5 3 -10 -1 -10 -9 0 -9 -4 -16 -10 -16 -5
0 -10 6 -10 14 0 8 -3 22 -7 32 -4 12 -3 15 5 10 7 -4 15 0 19 10 6 16 7 16
14 -2 4 -10 8 -25 8 -32z m-1467 -8 c4 -7 19 -14 32 -18 13 -3 26 -15 29 -26
4 -14 1 -18 -8 -12 -27 15 -105 86 -105 96 0 10 40 -21 52 -40z m1413 -42 c-9
-9 -25 11 -25 32 0 37 14 40 22 4 3 -18 5 -34 3 -36z m210 58 c3 -5 2 -10 -4
-10 -5 0 -13 5 -16 10 -3 6 -2 10 4 10 5 0 13 -4 16 -10z m-6538 -22 c-3 -8
-6 -5 -6 6 -1 11 2 17 5 13 3 -3 4 -12 1 -19z m6307 -43 c9 -14 12 -25 6 -25
-5 0 -10 5 -10 11 0 8 -5 7 -15 -1 -20 -16 -26 -10 -18 18 7 29 17 28 37 -3z
m1106 10 c0 -8 -7 -15 -15 -15 -16 0 -20 12 -8 23 11 12 23 8 23 -8z m-1040
-15 c0 -5 -4 -10 -10 -10 -5 0 -10 5 -10 10 0 6 5 10 10 10 6 0 10 -4 10 -10z
m-923 -27 c-3 -3 -11 -2 -17 2 -9 6 -9 10 1 16 14 8 27 -7 16 -18z m2043 -6
c0 -33 -10 -40 -32 -21 -17 16 -17 18 0 30 25 19 32 17 32 -9z m-2454 -22 c13
-13 13 -15 1 -15 -8 0 -17 7 -21 15 -3 8 -3 15 0 15 3 0 12 -7 20 -15z m-8318
-97 c-22 -13 -28 -9 -28 19 0 26 0 26 20 8 16 -14 17 -20 8 -27z m-44 17 c-4
-8 -12 -15 -20 -15 -8 0 -14 -7 -14 -15 0 -8 -4 -15 -10 -15 -16 0 -12 12 12
37 24 26 40 30 32 8z m10894 -6 c10 -14 10 -18 -3 -23 -11 -4 -15 1 -15 21 0
14 1 24 3 22 1 -2 8 -11 15 -20z m-1918 -29 c0 -4 -9 -10 -20 -13 -21 -5 -48
17 -31 27 5 3 12 0 14 -6 3 -8 6 -5 6 6 1 15 4 16 16 6 8 -7 15 -16 15 -20z
m1990 -12 c0 -17 -3 -28 -7 -25 -9 10 -10 57 -1 57 4 0 8 -14 8 -32z m-11040
-3 c0 -8 -4 -15 -10 -15 -5 0 -7 7 -4 15 4 8 8 15 10 15 2 0 4 -7 4 -15z m82
-7 c-7 -7 -12 -8 -12 -2 0 14 12 26 19 19 2 -3 -1 -11 -7 -17z m8818 12 c0 -5
-6 -10 -14 -10 -8 0 -18 5 -21 10 -3 6 3 10 14 10 12 0 21 -4 21 -10z m-8530
-16 c0 -8 -5 -12 -10 -9 -6 4 -8 11 -5 16 9 14 15 11 15 -7z m10205 -4 c3 -5
1 -10 -4 -10 -6 0 -11 5 -11 10 0 6 2 10 4 10 3 0 8 -4 11 -10z m-10217 -40
c-7 -10 -14 -18 -15 -16 -6 6 9 36 18 36 5 0 4 -9 -3 -20z m10302 6 c0 -11
-19 -15 -25 -6 -3 5 1 10 9 10 9 0 16 -2 16 -4z m720 0 c0 -3 -4 -8 -10 -11
-5 -3 -10 -1 -10 4 0 6 5 11 10 11 6 0 10 -2 10 -4z m-146 -67 c-3 -5 -10 -7
-15 -3 -5 3 -7 10 -3 15 3 5 10 7 15 3 5 -3 7 -10 3 -15z m-372 -121 c-7 -7
-12 -8 -12 -2 0 14 12 26 19 19 2 -3 -1 -11 -7 -17z m-237 -28 c3 -5 1 -10 -4
-10 -6 0 -11 5 -11 10 0 6 2 10 4 10 3 0 8 -4 11 -10z m271 -17 c-7 -7 -26 7
-26 19 0 6 6 6 15 -2 9 -7 13 -15 11 -17z m-783 10 c-7 -2 -19 -2 -25 0 -7 3
-2 5 12 5 14 0 19 -2 13 -5z m532 -23 c3 -5 1 -10 -4 -10 -6 0 -11 5 -11 10 0
6 2 10 4 10 3 0 8 -4 11 -10z m-180 -30 c3 -6 -1 -7 -9 -4 -18 7 -21 14 -7 14
6 0 13 -4 16 -10z m-30 -39 c3 -5 1 -12 -5 -16 -5 -3 -10 1 -10 9 0 18 6 21
15 7z m75 -21 c0 -6 -9 -5 -20 2 -11 7 -20 16 -20 21 0 4 9 3 20 -3 11 -6 20
-15 20 -20z m-8210 -220 c0 -5 -5 -10 -11 -10 -5 0 -7 5 -4 10 3 6 8 10 11 10
2 0 4 -4 4 -10z m-1830 -29 c0 -11 -28 -41 -39 -41 -20 0 -20 16 1 32 26 20
38 23 38 9z m39 -54 c1 -5 -3 -5 -9 -2 -5 3 -10 16 -9 28 0 21 1 21 9 2 5 -11
9 -24 9 -28z"/>
<path d="M26815 2081 c-3 -5 -1 -12 5 -16 5 -3 10 1 10 9 0 18 -6 21 -15 7z"/>
<path d="M18505 2110 c-3 -5 1 -10 9 -10 8 0 18 5 21 10 3 6 -1 10 -9 10 -8 0
-18 -4 -21 -10z"/>
<path d="M26549 1778 c0 -2 -2 -16 -4 -32 -4 -26 -3 -27 10 -10 17 22 19 44 5
44 -5 0 -10 -1 -11 -2z"/>
<path d="M28632 1660 c0 -14 2 -19 5 -12 2 6 2 18 0 25 -3 6 -5 1 -5 -13z"/>
<path d="M28741 1674 c-1 -18 26 -37 34 -24 3 5 0 10 -9 10 -8 0 -17 6 -19 13
-4 7 -6 8 -6 1z"/>
<path d="M28840 1636 c0 -10 -6 -13 -15 -10 -8 4 -15 1 -15 -5 0 -6 14 -11 31
-11 23 0 30 4 27 17 -4 21 -28 29 -28 9z"/>
<path d="M28660 1565 c7 -9 15 -13 17 -11 7 7 -7 26 -19 26 -6 0 -6 -6 2 -15z"/>
<path d="M28713 1494 c-20 -21 -16 -42 3 -22 9 9 15 21 13 26 -2 6 -9 4 -16
-4z"/>
<path d="M27840 1710 c0 -5 5 -10 11 -10 5 0 7 5 4 10 -3 6 -8 10 -11 10 -2 0
-4 -4 -4 -10z"/>
<path d="M28160 1539 c0 -24 23 -21 28 4 2 10 -3 17 -12 17 -10 0 -16 -9 -16
-21z"/>
<path d="M28006 1501 c-4 -5 -2 -12 3 -15 5 -4 12 -2 15 3 4 5 2 12 -3 15 -5
4 -12 2 -15 -3z"/>
<path d="M28084 1501 c4 -6 13 -11 21 -11 7 0 16 -11 19 -25 4 -14 11 -25 17
-25 6 0 9 7 5 15 -3 8 2 19 12 24 22 13 16 17 -37 26 -31 5 -42 4 -37 -4z"/>
<path d="M28200 1491 c-6 -12 -7 -21 -1 -21 10 0 24 30 17 37 -2 3 -9 -5 -16
-16z"/>
<path d="M28430 1480 c0 -5 5 -10 11 -10 5 0 7 5 4 10 -3 6 -8 10 -11 10 -2 0
-4 -4 -4 -10z"/>
<path d="M28070 1460 c0 -4 6 -13 14 -19 10 -8 16 -8 25 3 9 11 6 15 -14 18
-14 3 -25 2 -25 -2z"/>
<path d="M28160 1450 c0 -5 5 -10 10 -10 6 0 10 5 10 10 0 6 -4 10 -10 10 -5
0 -10 -4 -10 -10z"/>
<path d="M28285 1440 c-3 -5 -1 -10 4 -10 6 0 11 5 11 10 0 6 -2 10 -4 10 -3
0 -8 -4 -11 -10z"/>
<path d="M28156 1417 c-18 -13 -18 -14 -1 -21 22 -8 28 -3 23 19 -3 14 -5 14
-22 2z"/>
<path d="M28317 1389 c-4 -16 -3 -18 9 -8 16 13 19 29 5 29 -5 0 -11 -9 -14
-21z"/>
<path d="M28231 1364 c0 -11 3 -14 6 -6 3 7 2 16 -1 19 -3 4 -6 -2 -5 -13z"/>
<path d="M28267 1353 c-11 -10 -8 -33 4 -33 11 0 39 24 39 34 0 8 -35 7 -43
-1z"/>
<path d="M27937 1323 c-7 -11 10 -40 18 -31 4 4 3 14 -3 24 -5 9 -12 12 -15 7z"/>
<path d="M27827 1313 c-4 -3 6 -18 22 -32 44 -39 61 -52 61 -47 0 2 3 11 6 20
5 13 -1 16 -25 16 -20 0 -31 5 -31 14 0 17 -24 38 -33 29z"/>
<path d="M27882 1308 c5 -13 38 -20 38 -8 0 4 -7 11 -16 14 -22 9 -26 8 -22
-6z"/>
<path d="M28247 1303 c-10 -16 11 -39 23 -27 8 8 7 14 -4 23 -8 7 -17 8 -19 4z"/>
<path d="M27560 1222 c0 -18 4 -32 9 -32 5 0 8 11 7 25 -4 38 -16 43 -16 7z"/>
<path d="M27540 1149 c0 -5 5 -7 10 -4 6 3 10 8 10 11 0 2 -4 4 -10 4 -5 0
-10 -5 -10 -11z"/>
<path d="M27701 1128 c0 -28 2 -30 9 -13 12 28 12 45 0 45 -5 0 -10 -15 -9
-32z"/>
<path d="M27665 1140 c3 -5 8 -10 11 -10 2 0 4 5 4 10 0 6 -5 10 -11 10 -5 0
-7 -4 -4 -10z"/>
<path d="M27517 1114 c5 -14 3 -15 -15 -5 -25 13 -32 14 -32 2 0 -5 10 -11 23
-13 17 -2 21 -9 19 -28 -2 -20 -1 -22 7 -10 13 19 14 70 1 70 -5 0 -7 -7 -3
-16z"/>
<path d="M27945 1100 c3 -5 8 -10 11 -10 2 0 4 5 4 10 0 6 -5 10 -11 10 -5 0
-7 -4 -4 -10z"/>
<path d="M27450 1091 c0 -5 7 -11 15 -15 8 -3 15 -15 15 -28 0 -16 3 -19 11
-11 9 9 8 18 -5 37 -16 26 -36 35 -36 17z"/>
<path d="M26357 1403 c-4 -3 -7 -14 -7 -24 0 -9 -9 -19 -20 -22 -11 -3 -20
-13 -20 -22 0 -14 2 -14 25 2 13 10 25 24 25 31 0 6 5 12 10 12 6 0 10 7 10
15 0 16 -12 20 -23 8z"/>
<path d="M26405 1319 c-10 -15 1 -23 20 -15 9 3 13 10 10 16 -8 13 -22 13 -30
-1z"/>
<path d="M26333 1285 c-15 -17 -17 -39 -3 -30 14 8 32 45 23 45 -4 -1 -14 -7
-20 -15z"/>
<path d="M26680 1341 c0 -6 5 -13 10 -16 6 -3 10 1 10 9 0 9 -4 16 -10 16 -5
0 -10 -4 -10 -9z"/>
<path d="M13810 1416 c0 -15 18 -31 26 -23 7 7 -7 37 -17 37 -5 0 -9 -6 -9
-14z"/>
<path d="M13865 1370 c-3 -5 -1 -10 4 -10 6 0 11 5 11 10 0 6 -2 10 -4 10 -3
0 -8 -4 -11 -10z"/>
<path d="M26632 1200 c-13 -21 -6 -54 9 -44 5 3 9 0 9 -5 0 -6 5 -11 11 -11 8
0 8 4 -1 15 -6 8 -9 23 -5 34 8 26 -8 34 -23 11z"/>
<path d="M26510 1160 c0 -19 3 -21 12 -12 9 9 9 15 0 24 -9 9 -12 7 -12 -12z"/>
<path d="M26695 1150 c-4 -6 -2 -17 4 -23 15 -15 25 -2 13 19 -7 12 -11 13
-17 4z"/>
<path d="M26635 970 c-3 -5 -1 -10 4 -10 6 0 11 5 11 10 0 6 -2 10 -4 10 -3 0
-8 -4 -11 -10z"/>
<path d="M26450 941 c0 -6 5 -13 10 -16 6 -3 10 1 10 9 0 9 -4 16 -10 16 -5 0
-10 -4 -10 -9z"/>
<path d="M26500 914 c0 -8 5 -12 10 -9 6 3 10 10 10 16 0 5 -4 9 -10 9 -5 0
-10 -7 -10 -16z"/>
<path d="M26690 920 c0 -5 5 -10 10 -10 6 0 10 5 10 10 0 6 -4 10 -10 10 -5 0
-10 -4 -10 -10z"/>
<path d="M26490 844 c0 -8 5 -12 10 -9 6 4 8 11 5 16 -9 14 -15 11 -15 -7z"/>
<path d="M28788 1065 c-4 -17 -1 -25 8 -25 8 0 14 11 14 25 0 14 -4 25 -9 25
-5 0 -11 -11 -13 -25z"/>
<path d="M28735 1068 c-10 -26 -2 -43 12 -26 7 8 8 19 3 28 -8 12 -10 12 -15
-2z"/>
<path d="M28802 1014 c-7 -8 -11 -14 -10 -15 25 -6 50 -7 42 -2 -6 5 -13 13
-15 20 -3 8 -8 7 -17 -3z"/>
<path d="M17460 2269 c0 -5 5 -7 10 -4 6 3 10 8 10 11 0 2 -4 4 -10 4 -5 0
-10 -5 -10 -11z"/>
<path d="M17658 2273 c6 -2 18 -2 25 0 6 3 1 5 -13 5 -14 0 -19 -2 -12 -5z"/>
<path d="M19325 2270 c3 -5 10 -10 16 -10 5 0 9 5 9 10 0 6 -7 10 -16 10 -8 0
-12 -4 -9 -10z"/>
<path d="M22105 2270 c-3 -5 -1 -10 4 -10 6 0 11 5 11 10 0 6 -2 10 -4 10 -3
0 -8 -4 -11 -10z"/>
<path d="M22560 2269 c0 -5 5 -7 10 -4 6 3 10 8 10 11 0 2 -4 4 -10 4 -5 0
-10 -5 -10 -11z"/>
<path d="M28732 2250 c0 -19 2 -27 5 -17 2 9 2 25 0 35 -3 9 -5 1 -5 -18z"/>
<path d="M27550 2263 c0 -5 5 -15 10 -23 8 -12 10 -11 10 8 0 12 -4 22 -10 22
-5 0 -10 -3 -10 -7z"/>
<path d="M28400 2260 c0 -5 7 -7 15 -4 8 4 15 8 15 10 0 2 -7 4 -15 4 -8 0
-15 -4 -15 -10z"/>
<path d="M28438 2243 c-4 -14 2 -19 29 -21 21 -1 32 2 28 8 -4 6 -11 8 -16 5
-5 -4 -12 1 -15 9 -8 21 -21 20 -26 -1z"/>
<path d="M27345 2220 c-3 -5 -1 -10 4 -10 6 0 11 5 11 10 0 6 -2 10 -4 10 -3
0 -8 -4 -11 -10z"/>
<path d="M27620 2199 c0 -5 5 -7 10 -4 6 3 10 8 10 11 0 2 -4 4 -10 4 -5 0
-10 -5 -10 -11z"/>
<path d="M27575 2190 c3 -5 8 -10 11 -10 2 0 4 5 4 10 0 6 -5 10 -11 10 -5 0
-7 -4 -4 -10z"/>
<path d="M19130 2180 c0 -5 5 -10 10 -10 6 0 10 5 10 10 0 6 -4 10 -10 10 -5
0 -10 -4 -10 -10z"/>
<path d="M28236 2134 c-4 -9 -4 -19 -1 -22 2 -3 7 3 11 12 4 9 4 19 1 22 -2 3
-7 -3 -11 -12z"/>
<path d="M27621 2114 c0 -11 3 -14 6 -6 3 7 2 16 -1 19 -3 4 -6 -2 -5 -13z"/>
<path d="M28130 2115 c0 -8 5 -15 10 -15 6 0 10 7 10 15 0 8 -4 15 -10 15 -5
0 -10 -7 -10 -15z"/>
<path d="M28170 2119 c0 -5 5 -7 10 -4 6 3 10 8 10 11 0 2 -4 4 -10 4 -5 0
-10 -5 -10 -11z"/>
<path d="M28430 2100 c0 -5 7 -10 15 -10 8 0 15 5 15 10 0 6 -7 10 -15 10 -8
0 -15 -4 -15 -10z"/>
<path d="M28150 2079 c0 -6 -9 -9 -20 -6 -24 6 -27 -8 -4 -17 8 -3 12 -10 9
-16 -3 -5 0 -10 8 -10 8 0 17 10 21 23 8 31 7 37 -4 37 -5 0 -10 -5 -10 -11z"/>
<path d="M28206 2066 c3 -12 13 -28 20 -36 13 -13 15 -12 20 8 4 12 11 22 16
22 22 0 -4 18 -32 22 -27 4 -30 2 -24 -16z"/>
<path d="M28265 2026 c-23 -26 -26 -57 -6 -64 10 -3 12 0 7 13 -4 11 0 22 10
29 9 7 15 20 13 29 -3 14 -7 13 -24 -7z"/>
<path d="M28313 1985 c-15 -17 -2 -28 22 -19 14 6 16 3 11 -14 -6 -17 -3 -19
14 -15 26 7 25 17 -2 43 -25 23 -29 24 -45 5z"/>
<path d="M28007 1933 c-12 -11 -8 -23 7 -17 8 3 16 -4 21 -18 6 -20 8 -21 12
-5 9 35 -18 62 -40 40z"/>
<path d="M27226 1911 c-4 -7 -5 -15 -2 -18 9 -9 19 4 14 18 -4 11 -6 11 -12 0z"/>
<path d="M27321 1894 c0 -11 3 -14 6 -6 3 7 2 16 -1 19 -3 4 -6 -2 -5 -13z"/>
<path d="M27978 1843 c7 -3 16 -2 19 1 4 3 -2 6 -13 5 -11 0 -14 -3 -6 -6z"/>
<path d="M27278 1785 c-23 -31 -23 -45 1 -45 12 0 20 9 24 28 7 37 -4 45 -25
17z"/>
<path d="M27400 1673 c0 -10 10 -13 37 -11 53 4 56 28 4 26 -28 -1 -41 -6 -41
-15z"/>
<path d="M27256 1567 c3 -10 9 -15 12 -12 3 3 0 11 -7 18 -10 9 -11 8 -5 -6z"/>
<path d="M27190 1538 c0 -9 5 -20 10 -23 13 -8 13 5 0 25 -8 13 -10 13 -10 -2z"/>
<path d="M27200 1444 c0 -8 5 -12 10 -9 6 3 10 10 10 16 0 5 -4 9 -10 9 -5 0
-10 -7 -10 -16z"/>
</g>
</svg>
